<?xml version="1.0" standalone="no"?>
<!DOCTYPE svg PUBLIC "-//W3C//DTD SVG 20010904//EN"
 "http://www.w3.org/TR/2001/REC-SVG-20010904/DTD/svg10.dtd">
<svg version="1.0" xmlns="http://www.w3.org/2000/svg"
 width="221.000000pt" height="221.000000pt" viewBox="0 0 221.000000 221.000000"
 preserveAspectRatio="xMidYMid meet">
<metadata>
Created by potrace 1.14, written by Peter Selinger 2001-2017
</metadata>
<g transform="translate(0.000000,221.000000) scale(0.100000,-0.100000)"
fill="#000000" stroke="none">
<path d="M945 2199 c-234 -41 -430 -138 -593 -293 -73 -70 -192 -221 -192
-244 0 -6 -3 -12 -8 -14 -16 -7 -85 -176 -109 -267 -20 -76 -26 -126 -29 -241
-2 -80 1 -167 7 -195 5 -27 12 -63 14 -78 16 -87 119 -328 159 -370 6 -7 19
-24 29 -40 34 -53 153 -171 232 -230 184 -137 383 -205 621 -213 381 -13 736
170 948 488 117 176 175 362 181 573 7 316 -100 588 -319 810 -60 61 -175 155
-189 155 -3 0 -30 15 -62 34 -67 41 -200 91 -300 113 -80 17 -315 25 -390 12z"/>
</g>
</svg>
